<?xml version="1.0" standalone="no"?>
<!DOCTYPE svg PUBLIC "-//W3C//DTD SVG 20010904//EN"
 "http://www.w3.org/TR/2001/REC-SVG-20010904/DTD/svg10.dtd">
<svg version="1.0" xmlns="http://www.w3.org/2000/svg"
 width="480.000000pt" height="315.000000pt" viewBox="0 0 480.000000 315.000000"
 preserveAspectRatio="xMidYMid meet">
<metadata>
Created by potrace 1.15, written by Peter Selinger 2001-2017
</metadata>
<g transform="translate(0.000000,315.000000) scale(0.100000,-0.100000)"
fill="#aaaaaa" stroke="none">
<path d="M3075 2986 c-139 -64 -193 -213 -126 -345 22 -43 22 -43 3 -65 -91
-102 -176 -205 -188 -228 -8 -15 -18 -65 -23 -111 -15 -146 -32 -160 -211
-165 l-127 -3 -25 39 c-30 45 -132 150 -198 204 -66 54 -183 117 -274 148
-212 73 -394 74 -605 4 -144 -48 -246 -110 -356 -219 -140 -137 -206 -246
-257 -420 -16 -55 -32 -133 -35 -172 l-6 -73 -105 0 -105 0 6 78 c13 169 89
385 190 538 65 100 230 266 326 328 288 187 647 235 981 130 154 -48 310 -140
453 -265 92 -82 128 -90 178 -40 63 64 28 130 -131 250 -196 148 -410 245
-620 282 -94 17 -383 17 -470 1 -88 -17 -271 -78 -345 -114 -178 -89 -377
-260 -495 -426 -253 -355 -323 -797 -191 -1200 74 -224 174 -386 346 -558 167
-168 326 -264 544 -329 163 -48 223 -56 396 -56 172 0 235 8 385 53 186 55
327 130 484 257 125 101 153 167 100 230 -21 25 -33 31 -66 31 -36 0 -48 -7
-112 -68 -127 -122 -229 -187 -386 -245 -249 -93 -566 -90 -817 6 -76 30 -111
47 -151 73 -6 4 100 164 108 164 4 0 36 -13 71 -30 125 -58 215 -75 399 -74
151 0 173 3 255 28 196 60 354 170 502 349 l23 27 167 0 c268 0 283 -10 291
-198 2 -65 10 -128 17 -142 7 -14 41 -56 75 -93 l63 -68 -23 -49 c-46 -99 -8
-227 88 -294 34 -24 55 -31 108 -34 87 -6 141 15 197 78 71 79 86 174 43 265
-46 98 -125 148 -228 144 l-60 -3 -58 60 -57 59 -5 110 c-6 129 -28 192 -86
248 -68 66 -117 81 -289 85 -84 2 -153 6 -153 9 0 3 10 36 23 75 l22 69 235
-3 c280 -4 270 0 410 -133 53 -49 198 -181 323 -293 l227 -204 0 -42 c0 -73
26 -131 84 -184 61 -55 107 -72 197 -72 164 0 281 133 266 301 -6 73 -27 115
-84 172 -94 94 -251 104 -357 23 -19 -14 -37 -26 -40 -26 -3 0 -59 48 -124
106 -64 59 -143 128 -174 155 l-57 48 113 105 113 106 235 0 234 0 34 -52
c114 -173 337 -165 432 15 18 33 23 58 22 118 -1 86 -18 124 -81 179 -81 71
-179 88 -269 46 -49 -23 -124 -97 -124 -123 0 -10 -53 -13 -268 -13 l-269 0
-44 -32 c-24 -17 -90 -77 -146 -131 l-103 -100 -73 69 c-40 39 -95 81 -122 94
-49 24 -56 25 -313 28 -232 3 -263 5 -258 18 3 9 6 36 6 60 l0 44 223 0 223 0
69 33 c39 19 120 75 183 126 l113 92 36 -31 c162 -143 415 -51 440 160 l6 48
102 41 c57 23 122 50 145 60 l42 19 43 -30 c52 -37 147 -48 222 -27 62 17 153
105 171 165 32 108 0 220 -80 284 -54 43 -99 59 -173 59 -142 1 -255 -113
-255 -256 0 -49 6 -45 -179 -119 l-84 -33 -54 49 c-30 27 -71 54 -91 60 -169
47 -332 -58 -349 -225 -5 -51 -8 -55 -77 -113 -126 -106 -202 -159 -251 -176
-39 -13 -90 -16 -251 -16 l-202 0 -19 63 -19 62 101 6 c115 6 179 32 233 93
49 56 62 90 74 189 13 99 13 100 169 270 l44 48 75 3 c81 2 122 18 165 64 43
44 67 102 73 169 4 56 1 70 -27 127 -64 131 -199 182 -326 122z m138 -157 c53
-24 62 -96 18 -140 -45 -44 -107 -35 -136 21 -41 79 37 156 118 119z m1178
-418 c75 -76 -4 -201 -102 -161 -60 25 -77 107 -33 159 36 43 93 44 135 2z
m-2660 -97 c151 -28 285 -100 402 -213 240 -231 305 -559 172 -871 -39 -92
-69 -138 -143 -214 -112 -116 -231 -185 -380 -221 -104 -25 -320 -18 -412 14
-226 78 -356 187 -456 385 -197 387 -42 869 340 1056 158 78 303 97 477 64z
m1913 -208 c31 -29 36 -40 36 -79 0 -85 -78 -139 -149 -103 -84 44 -84 160 0
203 41 22 75 15 113 -21z m780 -588 c15 -13 29 -37 32 -55 5 -27 1 -37 -24
-63 -37 -37 -61 -38 -101 -4 -40 33 -43 83 -6 119 30 31 66 32 99 3z m-3768
-115 c15 -72 58 -221 70 -245 14 -27 13 -28 -58 -81 -40 -29 -78 -56 -84 -60
-28 -17 -114 219 -130 356 l-7 57 101 0 102 0 6 -27z m200 -454 c15 -22 59
-69 96 -104 37 -34 68 -66 68 -70 0 -12 -102 -155 -110 -155 -18 0 -146 120
-202 189 l-59 74 48 28 c26 16 62 40 78 53 17 14 35 25 41 26 6 0 24 -18 40
-41z m3191 -189 c66 -40 80 -124 28 -176 -34 -34 -102 -33 -144 2 -27 22 -31
32 -31 76 0 61 13 86 53 103 43 19 56 18 94 -5z m-780 -336 c49 -49 10 -134
-61 -134 -55 1 -89 43 -75 94 19 66 89 87 136 40z"/>
<path d="M1960 2039 c-14 -5 -95 -80 -181 -165 -146 -146 -159 -157 -205 -165
-57 -11 -90 -32 -122 -80 -20 -29 -23 -44 -20 -101 3 -61 7 -71 38 -103 100
-103 280 -44 280 92 0 32 10 44 212 249 132 135 138 142 138 182 0 74 -71 120
-140 91z"/>
</g>
</svg>
